<svg width="20" height="20" viewBox="0 0 20 20" fill="none" xmlns="http://www.w3.org/2000/svg">
<g clip-path="url(#clip0_15_2)">
<path d="M10 20C15.2855 20 19.5703 15.5228 19.5703 10C19.5703 4.47715 15.2855 0 10 0C4.71446 0 0.429688 4.47715 0.429688 10C0.429688 15.5228 4.71446 20 10 20Z" fill="#E88102"/>
<path d="M10 18.9453C15.2316 18.9453 19.4727 14.7043 19.4727 9.47266C19.4727 4.24105 15.2316 0 10 0C4.7684 0 0.527344 4.24105 0.527344 9.47266C0.527344 14.7043 4.7684 18.9453 10 18.9453Z" fill="#FDD835"/>
<path d="M13.7812 0.785156L1.3125 13.25C0.894531 12.293 0.632812 11.2539 0.554688 10.1641L10.6914 0.0234375C11.7812 0.105469 12.8203 0.367188 13.7812 0.785156ZM18.2539 4.82422L5.35156 17.7266C4.54688 17.2734 3.82031 16.707 3.18359 16.0469L16.5781 2.65625C17.2344 3.28906 17.8008 4.01953 18.2539 4.82422ZM16.1914 2.30078L2.83203 15.6602C2.625 15.418 2.42578 15.1641 2.24219 14.9023L15.4336 1.71094C15.6953 1.89453 15.9492 2.09375 16.1914 2.30078ZM19.1758 7.10937L7.63672 18.6484C7.28906 18.5586 6.94922 18.4492 6.61719 18.3242L18.8516 6.08984C18.9766 6.42187 19.0859 6.76172 19.1758 7.10937Z" fill="white" fill-opacity="0.314"/>
<path d="M19.4727 9.47266C19.4727 9.53906 19.4727 9.60156 19.4687 9.66797C19.3672 4.52734 15.168 0.390625 10 0.390625C4.83203 0.390625 0.632813 4.52734 0.53125 9.66797C0.53125 9.60156 0.527344 9.53906 0.527344 9.47266C0.527344 4.24219 4.76953 0 10 0C15.2305 0 19.4727 4.24219 19.4727 9.47266Z" fill="white" fill-opacity="0.314"/>
<path d="M17.6953 9.88281C17.6953 13.9805 14.3711 17.3047 10.2734 17.3047C7.97266 17.3047 5.91406 16.2539 4.55078 14.6094C5.90625 16.0742 7.84375 16.9922 10 16.9922C14.0977 16.9922 17.4219 13.668 17.4219 9.57031C17.4219 7.77344 16.7852 6.12891 15.7227 4.84375C16.9453 6.16797 17.6953 7.9375 17.6953 9.88281Z" fill="white" fill-opacity="0.314"/>
<path d="M10 16.9922C14.099 16.9922 17.4219 13.6693 17.4219 9.57031C17.4219 5.47132 14.099 2.14844 10 2.14844C5.90101 2.14844 2.57812 5.47132 2.57812 9.57031C2.57812 13.6693 5.90101 16.9922 10 16.9922Z" fill="#F39E09"/>
<path d="M15.625 4.72656C14.3242 3.60547 12.6328 2.92969 10.7812 2.92969C6.68359 2.92969 3.35938 6.25391 3.35938 10.3516C3.35938 12.2031 4.03516 13.8945 5.15625 15.1953C3.57812 13.832 2.57812 11.8203 2.57812 9.57031C2.57812 5.47266 5.90234 2.14844 10 2.14844C12.2461 2.14844 14.2617 3.14844 15.625 4.72656Z" fill="#E88102"/>
<path d="M9.53516 7.67969C9.40234 7.83203 9.33203 8.04297 9.33203 8.3125C9.33203 8.58203 9.41016 8.80469 9.56641 8.96484C9.72266 9.125 9.97266 9.27734 10.3164 9.42578C10.6602 9.57031 10.9844 9.72266 11.2891 9.87891C11.5938 10.0352 11.8555 10.2148 12.0781 10.4141C12.3008 10.6133 12.4727 10.8477 12.5977 11.1133C12.6445 11.2148 12.7852 11.4062 12.7852 11.4062V12.0742C12.7852 12.707 12.5859 13.2227 12.1836 13.6211C11.7812 14.0195 11.2383 14.2539 10.5469 14.3203V15.4297H9.66406V14.3086C8.85937 14.2227 8.24219 13.9492 7.80859 13.4805C7.37891 13.0117 7.16406 12.3984 7.16406 11.6328V11.0469L9.03125 11.6328C9.03125 12.0547 9.125 12.375 9.3125 12.5937C9.5 12.8125 9.76562 12.9219 10.1094 12.9219C10.3594 12.9219 10.5586 12.8477 10.7031 12.6953C10.8477 12.543 10.918 12.3398 10.918 12.0781C10.918 11.7852 10.8477 11.5586 10.7031 11.3906C10.5586 11.2227 10.3047 11.0664 9.94531 10.918C9.58203 10.7695 9.25 10.6211 8.94141 10.4688C8.63281 10.3164 8.37109 10.1406 8.14844 9.94141C7.92578 9.74219 7.75781 9.51172 7.63672 9.25C7.51953 8.98828 7.46094 8.67187 7.46094 8.29687V7.67578C7.46094 7.67578 7.80859 7.02344 8.09375 6.75391C8.51563 6.34766 9.07813 6.11328 9.77734 6.04688V4.88281H10.6602V6.07422C11.3359 6.17578 11.8672 6.45312 12.2539 6.91016C12.5195 7.22266 12.832 8.0625 12.832 8.0625V8.64844H10.957C10.957 8.26562 10.8828 7.96875 10.7344 7.76172C10.5859 7.55469 10.375 7.45313 10.1016 7.45313C9.85938 7.44922 9.67188 7.52734 9.53516 7.67969Z" fill="#DB6704"/>
<path d="M10.918 11.4961C10.918 11.2031 10.8477 10.9766 10.7031 10.8086C10.5586 10.6406 10.3047 10.4844 9.94531 10.3359C9.58203 10.1875 9.25 10.0391 8.94141 9.88672C8.63281 9.73438 8.37109 9.55859 8.14844 9.35938C7.92578 9.16016 7.75781 8.92969 7.63672 8.66797C7.51953 8.40625 7.46094 8.08594 7.46094 7.71484C7.46094 7.08984 7.67187 6.57422 8.09375 6.17188C8.51562 5.76953 9.07813 5.53125 9.77734 5.46484V4.29688H10.6602V5.48828C11.3359 5.58984 11.8672 5.86719 12.2539 6.32422C12.6406 6.78125 12.832 7.35937 12.832 8.0625H10.957C10.957 7.67969 10.8828 7.38281 10.7344 7.17578C10.5859 6.96875 10.375 6.86719 10.1016 6.86719C9.85938 6.86719 9.66797 6.94531 9.53516 7.09766C9.40234 7.25 9.33203 7.46094 9.33203 7.73047C9.33203 8 9.41016 8.22266 9.56641 8.38281C9.72266 8.54297 9.97266 8.69531 10.3125 8.84375C10.6562 8.98828 10.9805 9.14062 11.2852 9.29688C11.5898 9.45312 11.8516 9.63281 12.0742 9.83203C12.2969 10.0312 12.4687 10.2656 12.5937 10.5313C12.7187 10.7969 12.7813 11.1172 12.7813 11.4883C12.7813 12.1211 12.582 12.6367 12.1797 13.0352C11.7773 13.4336 11.2344 13.668 10.543 13.7344V14.8438H9.66016V13.7227C8.85547 13.6367 8.23828 13.3633 7.80469 12.8945C7.375 12.4258 7.16016 11.8125 7.16016 11.0469H9.02734C9.02734 11.4687 9.12109 11.7891 9.30859 12.0078C9.49609 12.2266 9.76172 12.3359 10.1055 12.3359C10.3555 12.3359 10.5547 12.2617 10.6992 12.1094C10.8437 11.957 10.918 11.7578 10.918 11.4961Z" fill="#FDD835"/>
<path d="M8.09375 6.17188C8.32031 5.95313 8.58984 5.78516 8.89844 5.66406L7.57422 6.99219C7.67578 6.67969 7.84766 6.41016 8.09375 6.17188ZM10.2656 4.29688L9.77734 4.78516V4.29688H10.2656ZM12.582 10.4961L9.39062 13.6875C8.71875 13.5742 8.19141 13.3086 7.8125 12.8984C7.56641 12.6289 7.39063 12.3125 7.28516 11.9492L8.18359 11.0508H9.03516C9.03516 11.4727 9.12891 11.793 9.31641 12.0117C9.50391 12.2305 9.76953 12.3398 10.1133 12.3398C10.3633 12.3398 10.5625 12.2656 10.707 12.1133C10.8516 11.9609 10.9219 11.7578 10.9219 11.4961C10.9219 11.2031 10.8516 10.9766 10.707 10.8086C10.5625 10.6406 10.3086 10.4844 9.94922 10.3359C9.69141 10.2305 9.44922 10.125 9.21875 10.0156L10.375 8.85938C10.6992 9 11.0039 9.14063 11.293 9.28906C11.5977 9.44531 11.8594 9.625 12.082 9.82422C12.293 10.0195 12.4609 10.2422 12.582 10.4961ZM12.832 8.05859H11.1719L12.5195 6.71094C12.7266 7.09375 12.832 7.54297 12.832 8.05859ZM7.16797 11.0469H7.44531L7.17969 11.3125C7.17188 11.2266 7.16797 11.1367 7.16797 11.0469ZM9.56641 8.37891C9.64453 8.46094 9.74609 8.53906 9.875 8.61719L8.71875 9.77344C8.50391 9.65234 8.3125 9.51562 8.14844 9.36328C8.08203 9.30469 8.02344 9.24219 7.96875 9.17969L9.33984 7.80859C9.35156 8.04297 9.42969 8.23437 9.56641 8.37891ZM12.2148 6.27734L10.9102 7.58203C10.875 7.42188 10.8164 7.28516 10.7383 7.17578C10.6211 7.01172 10.4648 6.91406 10.2695 6.87891L11.4375 5.71094C11.7383 5.84766 11.9961 6.03516 12.2148 6.27734ZM10.0937 14.8438L10.5469 14.3906V14.8438H10.0937ZM12.6641 12.2734C12.5664 12.5625 12.4062 12.8125 12.1875 13.0313C11.9688 13.25 11.707 13.418 11.4023 13.5352L12.6641 12.2734Z" fill="white" fill-opacity="0.314"/>
<path d="M16.1914 5.47266C11.3867 7.16016 7.52734 10.8672 5.63672 15.5742C5.47266 15.4531 5.3125 15.3281 5.15625 15.1914C4.03516 13.8906 3.35938 12.1992 3.35938 10.3516C3.35938 6.25391 6.68359 2.92969 10.7812 2.92969C12.6328 2.92969 14.3242 3.60547 15.6211 4.72656C15.8281 4.96484 16.0156 5.21484 16.1914 5.47266Z" fill="white" fill-opacity="0.145"/>
</g>
<defs>
<clipPath id="clip0_15_2">
<rect width="20" height="20" fill="white"/>
</clipPath>
</defs>
</svg>
